<?xml version="1.0" standalone="no"?><!-- Generator: Gravit.io --><svg xmlns="http://www.w3.org/2000/svg" xmlns:xlink="http://www.w3.org/1999/xlink" style="isolation:isolate" viewBox="3869.326 -661.224 26 26" width="26" height="26"><defs><filter id="iNcwN3ynwPEHduILhN64Em3a9QeoIlIj" x="-200%" y="-200%" width="400%" height="400%" filterUnits="objectBoundingBox" color-interpolation-filters="sRGB"><feGaussianBlur xmlns="http://www.w3.org/2000/svg" in="SourceGraphic" stdDeviation="0.8587218125678057"/><feOffset xmlns="http://www.w3.org/2000/svg" dx="0" dy="0" result="pf_100_offsetBlur"/><feFlood xmlns="http://www.w3.org/2000/svg" flood-color="#000000" flood-opacity="0.65"/><feComposite xmlns="http://www.w3.org/2000/svg" in2="pf_100_offsetBlur" operator="in" result="pf_100_dropShadow"/><feBlend xmlns="http://www.w3.org/2000/svg" in="SourceGraphic" in2="pf_100_dropShadow" mode="normal"/></filter></defs><g filter="url(#iNcwN3ynwPEHduILhN64Em3a9QeoIlIj)"><path d=" M 3872.326 -648.224 C 3872.326 -653.743 3876.807 -658.224 3882.326 -658.224 C 3887.845 -658.224 3892.326 -653.743 3892.326 -648.224 C 3892.326 -642.704 3887.845 -638.224 3882.326 -638.224 C 3876.807 -638.224 3872.326 -642.704 3872.326 -648.224 Z  M 3886.484 -642.453 L 3882.332 -646.605 L 3878.169 -642.442 L 3876.555 -644.055 L 3880.718 -648.218 L 3876.545 -652.392 L 3878.158 -654.005 L 3882.332 -649.832 L 3886.494 -653.994 L 3888.108 -652.381 L 3883.945 -648.218 L 3888.097 -644.066 L 3886.484 -642.453 L 3886.484 -642.453 Z " fill-rule="evenodd" fill="rgb(230,93,93)"/></g></svg>